HIERARCHY
ROOT Hips
{
     OFFSET 1.88212 96.90440 -13.34250
     CHANNELS 6 Xposition Yposition Zposition Zrotation Xrotation Yrotation
     JOINT Spine
     {
          OFFSET 0.00000 11.89050 0.00000
          CHANNELS 3 Zrotation Xrotation Yrotation
          JOINT Spine1
          {
               OFFSET -0.00000 25.65740 0.12766
               CHANNELS 3 Zrotation Xrotation Yrotation
               JOINT HEad
               {
                    OFFSET 0.00000 8.73416 0.01134
                    CHANNELS 3 Zrotation Xrotation Yrotation
                    End Site
                    {
                         OFFSET -0.29000 12.77420 2.51395
                    }
               }
               JOINT LeftShoulder1
               {
                    OFFSET 8.99000 -0.36225 -0.22000
                    CHANNELS 3 Zrotation Xrotation Yrotation
                    JOINT LeftArm
                    {
                         OFFSET 10.28270 -0.00338 0.32212
                         CHANNELS 3 Zrotation Xrotation Yrotation
                         JOINT LeftForeArm
                         {
                              OFFSET 32.76690 0.09914 -1.42434
                              CHANNELS 3 Zrotation Xrotation Yrotation
                              JOINT LeftHand
                              {
                                   OFFSET 27.56430 0.08536 1.02216
                                   CHANNELS 3 Zrotation Xrotation Yrotation
                                   End Site
                                   {
                                        OFFSET 16.74430 -0.60000 1.50291
                                   }
                              }
                         }
                    }
               }
               JOINT RightShoulder
               {
                    OFFSET -8.99000 -0.36225 -0.22000
                    CHANNELS 3 Zrotation Xrotation Yrotation
                    JOINT RightArm
                    {
                         OFFSET -10.28270 -0.00338 0.32212
                         CHANNELS 3 Zrotation Xrotation Yrotation
                         JOINT RightForeArm
                         {
                              OFFSET -32.89710 0.09914 -1.42434
                              CHANNELS 3 Zrotation Xrotation Yrotation
                              JOINT RightHand
                              {
                                   OFFSET -27.49210 0.08536 1.02216
                                   CHANNELS 3 Zrotation Xrotation Yrotation
                                   End Site
                                   {
                                        OFFSET -16.63120 -0.60000 1.50291
                                   }
                              }
                         }
                    }
               }
          }
     }
     JOINT LeftUpLeg
     {
          OFFSET 8.94580 -8.66707 0.10165
          CHANNELS 3 Zrotation Xrotation Yrotation
          JOINT LeftLeg
          {
               OFFSET 0.00000 -44.42270 1.37270
               CHANNELS 3 Zrotation Xrotation Yrotation
               JOINT LeftFoot
               {
                    OFFSET -0.25355 -42.09240 -1.46059
                    CHANNELS 3 Zrotation Xrotation Yrotation
                    JOINT LeftToes
                    {
                         OFFSET -0.04000 -4.41509 8.49910
                         CHANNELS 3 Zrotation Xrotation Yrotation
                         End Site
                         {
                              OFFSET 0.08000 -0.04745 9.77979
                         }
                    }
               }
          }
     }
     JOINT RightUpLeg
     {
          OFFSET -8.94580 -8.66707 0.10165
          CHANNELS 3 Zrotation Xrotation Yrotation
          JOINT RightLeg
          {
               OFFSET 0.00000 -44.42270 1.37270
               CHANNELS 3 Zrotation Xrotation Yrotation
               JOINT RightFoot
               {
                    OFFSET 0.25355 -42.09240 -1.46059
                    CHANNELS 3 Zrotation Xrotation Yrotation
                    JOINT RightToes
                    {
                         OFFSET 0.04000 -4.41509 8.49910
                         CHANNELS 3 Zrotation Xrotation Yrotation
                         End Site
                         {
                              OFFSET -0.08000 -0.13745 9.77979
                         }
                    }
               }
          }
     }
}
MOTION
Frames: 8
Frame Time: 0.01667
44.18097 77.61423 -121.21140 -2.55671 2.74581 -22.05230 -5.08635 9.16903 8.12395 0.00314 0.00499 0.00412 -6.06869 11.36696 18.23627 -2.13256 6.04442 7.36788 -88.95169 -12.32446 -90.32767 -0.41960 35.69702 -100.25407 35.18015 3.63477 -16.15016 32.79260 12.67966 11.22309 57.03893 -8.76605 72.48553 5.47940 38.37422 109.47449 -32.98332 10.73343 -7.11669 22.96058 -46.88754 16.47541 -3.50675 70.39542 10.21530 7.96410 -0.00385 0.00280 -5.97366 -13.42542 -2.17583 -16.58328 -4.27883 1.46363 18.65570 53.23328 -16.50901 24.67600 -0.00189 0.01120 -3.95813 -44.28225 21.15574 
44.09439 76.74624 -121.38786 -2.54868 2.36917 -22.05852 -5.33129 9.83749 8.41769 0.00237 0.00444 0.00305 -5.89629 11.21356 17.80750 -2.22400 5.80300 6.93796 -89.11217 -12.13392 -90.12644 -0.02157 35.86342 -100.92324 35.48287 3.59526 -16.15268 33.05371 12.26386 10.84120 56.62488 -8.58563 71.94896 4.97214 38.34687 110.13119 -33.12122 10.81952 -7.25643 23.23281 -47.60013 16.54995 -3.46551 72.14544 10.30812 8.41535 -0.00394 0.00320 -6.57223 -14.02920 -2.35742 -16.99651 -5.03066 1.06005 19.50337 56.05674 -16.84054 25.54191 0.00027 0.01480 -4.53185 -45.93287 21.68439 
43.96293 75.70145 -121.58165 -2.51273 1.95663 -22.00653 -5.61207 10.50941 8.67836 0.00212 0.00416 0.00227 -5.74563 11.10590 17.38062 -2.27214 5.57701 6.49744 -89.28388 -11.90239 -89.98497 0.34630 36.00216 -101.51364 35.53579 3.69019 -16.03097 33.29824 11.84360 10.45223 56.17994 -8.38679 71.45152 4.44976 38.23645 110.76533 -33.14843 10.87719 -7.31376 23.52467 -48.49519 16.68503 -3.20090 74.18616 10.14571 8.86509 -0.00390 0.00362 -7.25340 -14.69066 -2.50217 -17.40675 -5.85131 0.66176 20.52828 59.15425 -17.45689 26.58519 0.00295 0.01871 -5.17203 -47.87438 22.25054 
43.81064 74.61845 -121.78197 -2.44945 1.52354 -21.90443 -5.92046 11.17031 8.90625 0.00164 0.00391 0.00176 -5.61760 11.03936 16.96189 -2.27640 5.36868 6.06730 -89.46143 -11.64544 -89.90567 0.66387 36.10561 -102.00513 35.66405 3.73376 -15.97233 33.50092 11.43364 10.08611 55.73948 -8.18797 71.01788 3.95053 38.05155 111.33929 -33.15264 10.90837 -7.48909 23.82526 -49.52626 16.87657 -2.64514 76.42322 9.65966 9.33377 -0.00358 0.00399 -8.00255 -15.42309 -2.65405 -17.80081 -6.71105 0.27590 21.75942 62.40944 -18.39390 27.79574 0.00612 0.02194 -5.75425 -49.85620 23.01720 
43.63944 73.53181 -121.98022 -2.36210 1.08621 -21.76091 -6.24633 11.80694 9.10360 0.00115 0.00373 0.00138 -5.51374 11.00814 16.55614 -2.24384 5.17607 5.65475 -89.63694 -11.38246 -89.88276 0.92398 36.18793 -102.39105 35.62928 3.84218 -15.84158 33.66195 11.03913 9.74914 55.30921 -7.98549 70.65744 3.49686 37.80848 111.82933 -33.06225 10.92323 -7.64670 24.12622 -50.63964 17.11946 -1.66964 78.74698 8.72118 9.83901 -0.00300 0.00426 -8.83639 -16.17026 -2.79933 -18.16249 -7.57303 -0.08940 23.22389 65.68614 -19.68209 29.15597 0.00927 0.02391 -6.29225 -51.83897 23.93343 
43.42875 72.47368 -122.15796 -2.24858 0.66070 -21.58104 -6.58440 12.40391 9.27358 0.00075 0.00366 0.00143 -5.43753 11.00599 16.16364 -2.19396 4.98458 5.28345 -89.78567 -11.10723 -89.87991 1.14133 36.26834 -102.70038 35.59946 3.94050 -15.69507 33.79301 10.66798 9.47465 54.85146 -7.79075 70.34195 3.10280 37.50317 112.20797 -32.88877 10.90119 -7.92991 24.42517 -51.77262 17.41557 0.00163 81.04102 7.04428 10.39023 -0.00231 0.00438 -9.86168 -16.88702 -2.98656 -18.47266 -8.38762 -0.42491 24.94300 68.83862 -21.34983 30.63963 0.01192 0.02437 -6.74705 -53.70461 25.03304 
43.20829 71.47855 -122.31958 -2.11163 0.26103 -21.37173 -6.92429 12.95062 9.41916 0.00029 0.00353 0.00139 -5.38939 11.02647 15.78688 -2.11177 4.79836 4.94097 -89.92777 -10.84363 -89.89658 1.31468 36.33512 -102.93250 35.53650 4.06628 -15.54083 33.89076 10.31515 9.24883 54.38710 -7.59371 70.08287 2.78548 37.15630 112.46202 -32.78630 10.88279 -8.06115 24.70669 -52.87173 17.75053 2.91082 83.19352 4.09278 10.99496 -0.00158 0.00431 -10.92589 -17.53227 -3.18013 -18.72229 -9.11532 -0.72453 26.93039 71.73759 -23.40090 32.21560 0.01367 0.02315 -7.18232 -55.44756 26.17168 
42.97855 70.57188 -122.45787 -1.95287 -0.09940 -21.13858 -7.25666 13.43730 9.54274 -0.00018 0.00343 0.00143 -5.36935 11.06232 15.42721 -2.00264 4.61612 4.63051 -90.06477 -10.59891 -89.93101 1.44706 36.38493 -103.08836 35.45924 4.18667 -15.40336 33.94997 9.98194 9.07186 53.93670 -7.40129 69.88557 2.54756 36.78833 112.58885 -32.65225 10.85100 -8.23751 24.95349 -53.89231 18.10643 8.13777 85.09835 -1.20582 11.65900 -0.00095 0.00403 -12.05333 -18.07476 -3.39210 -18.90698 -9.72513 -0.98474 29.14681 74.28092 -25.78439 33.85629 0.01431 0.02059 -7.60383 -56.98059 27.33516 
